<svg width="369" height="369" viewBox="0 0 369 369" fill="none" xmlns="http://www.w3.org/2000/svg">
<path d="M230.132 307L280 307L280 160.766C280 106.504 236.388 61.5786 183.064 62.003C156.789 62.1849 133.017 73.0979 115.799 90.6799C98.4014 108.383 87.6175 132.877 87.6175 159.856L87.6175 307L135.877 307L135.877 305.727C135.877 280.384 156.194 258.619 181.098 258.073C208.087 257.528 230.132 279.657 230.132 307ZM135.937 162.645C135.043 134.938 157.326 112.263 184.613 113.173C209.279 113.961 229.357 134.453 230.132 159.553C230.966 187.26 208.743 209.935 181.515 209.025C156.849 208.237 136.771 187.806 135.937 162.645Z" fill="lightgray"/>
</svg>
