<svg width="768" height="204" viewBox="0 0 768 204" fill="none" xmlns="http://www.w3.org/2000/svg">
<g clip-path="url(#clip0_143_731)">
<path d="M257.915 53.8099V1.25586H103.97C46.8474 1.25586 -0.446561 47.2171 0.000209969 103.413C0.191683 131.103 11.6801 156.155 30.1892 174.301C48.8259 192.635 74.611 204 103.013 204H257.915V153.141H256.575C229.896 153.141 206.983 131.73 206.409 105.485C205.834 77.0416 229.13 53.8099 257.915 53.8099ZM105.949 153.079C76.7811 154.02 52.9107 130.537 53.8681 101.78C54.6978 75.7859 76.2705 54.6261 102.694 53.8099C131.862 52.9308 155.732 76.351 154.775 105.045C153.945 131.04 132.436 152.2 105.949 153.079Z" fill="#1473E2"/>
<path d="M489.853 116.41C496.554 125.075 499.937 135.686 499.937 148.307C499.937 166.201 492.853 179.952 478.747 189.559C464.642 199.165 444.027 204 416.965 204H309.74V0H411.03C436.304 0 455.707 4.77193 469.238 14.253C482.768 23.7969 489.534 36.6685 489.534 52.9935C489.534 62.9141 487.108 71.7673 482.258 79.4903C477.407 87.2761 470.642 93.3666 461.962 97.8246C473.833 101.529 483.088 107.682 489.789 116.347M357.353 35.4755V83.5716H405.03C416.902 83.5716 425.837 81.5623 431.964 77.4811C438.091 73.3998 441.155 67.3721 441.155 59.398C441.155 51.4238 438.091 45.4589 431.964 41.5032C425.837 37.5476 416.838 35.5383 405.03 35.5383H357.353V35.4755ZM441.921 162.246C448.367 158.164 451.558 151.885 451.558 143.283C451.558 126.393 438.793 117.917 413.327 117.917H357.353V168.336H413.327C425.965 168.336 435.474 166.327 441.921 162.246Z" fill="#1473E2"/>
<path d="M566.123 0H518.127V204H566.123V0Z" fill="#1473E2"/>
<path d="M718.286 204L678.268 147.176H634.101V204H586.105V0H675.843C694.288 0 710.244 3.01385 723.775 9.04155C737.306 15.0693 747.709 23.6085 755.049 34.6593C762.325 45.7101 766.027 58.8329 766.027 74.0277C766.027 89.2225 762.325 102.22 754.921 113.208C747.518 124.196 736.987 132.609 723.392 138.386L769.92 203.937H718.35L718.286 204ZM706.159 47.6565C698.628 41.566 687.714 38.4894 673.29 38.4894H634.165V109.566H673.29C687.714 109.566 698.692 106.489 706.159 100.211C713.691 93.9945 717.392 85.2668 717.392 73.9649C717.392 62.663 713.627 53.6842 706.159 47.5937" fill="#1473E2"/>
</g>
<defs>
<clipPath id="clip0_143_731">
<rect width="768" height="204" fill="white"/>
</clipPath>
</defs>
</svg>
